<svg id="Layer_1" data-name="Layer 1" xmlns="http://www.w3.org/2000/svg" viewBox="0 0 600 165.607"><defs><style>.cls-1,.cls-2{fill-rule:evenodd}.cls-1{opacity:.6;fill:#a095a5}.cls-2{fill:#5a4463}</style></defs><path class="cls-1" d="M245.632 2.022h42.326v10.66h-28.763v63.229h27.033v11.12h-27.033v65.893h28.49v10.845h-42.053V2.022zM191.643 2.022h13.562v150.902h28.399v10.845h-41.961V2.022zM165.05 2.022h14.018l-26.124 90.707v71.04h-13.562V92.821L110.437 2.022h13.653l21.937 71.499h.273l18.75-71.499zM63.547 2.022h45.238v10.66H93.766v151.087H80.295V12.682H63.547V2.022zM.637 26.835Q2 13.694 8.329 6.847T28.126 0Q41.6 0 46.876 6.8a34.588 34.588 0 0 1 4.552 7.352q3.457 7.445 3.549 35.474v9.1H41.051v-10.11q0-21.321-1.365-25.824a28.768 28.768 0 0 0-2.822-6.8q-2.64-4.227-9.466-4.228-13.836 0-13.836 26.009 0 9.1 1.73 12.36t2.594 5.1q.864 1.837 11.605 12.682l8.738 8.915q19.389 20.127 19.388 46.18T50.2 157.336q-7.419 8.271-21.982 8.271-22.392 0-25.759-27.295A181.3 181.3 0 0 1 1.274 115.7V98.886H15.11v16.543q0 21.871 2.867 30.143t11.7 8.271q8.829 0 11.241-5.376a34.169 34.169 0 0 0 2.64-13q.228-7.628.228-16.358 0-18.014-14.109-31.89L20.389 78.3Q8.192 66.261 4.1 58.036A37.152 37.152 0 0 1 0 41.31a139.394 139.394 0 0 1 .637-14.475z"/><path class="cls-2" d="M551.758 2.022h47.878v15.807H570.6v55.325h27.489v15.807H570.6v59.001H600v15.807h-48.242V2.022zM466.977 47.789q0-35.658 16.749-44.3a32.316 32.316 0 0 1 14.381-3.4q14.655 0 21.208 6.3t8.465 16.634a140.775 140.775 0 0 1 1.912 25.135v12.5h-18.2V39.61q0-12.408-2.5-17.737t-9.83-5.331a10.5 10.5 0 0 0-10.331 6.709q-3 6.709-3 23.711v68.007q0 19.392 2.64 26.973t10.422 7.582q7.782 0 10.649-7.812T512.4 114.6V93.556h-13.019v-14.7h30.311v84.917h-9.922l-2.548-12.5q-5.372 14.061-20.526 14.061t-22.437-11.9q-7.281-11.9-7.282-37.818zM427.89 2.022h-22.665l-24.3 161.747h17.931l4.187-30.879h29.036l4.552 30.879h17.749zM405.134 117.45l11.651-85.468h.273l12.652 85.468zM309.612 52.108a51.44 51.44 0 0 1-1.638-13.877q0-17.553 6.417-27.892T338.921 0q23.3 0 27.489 22.608a137.116 137.116 0 0 1 1.821 24.538V56.7h-18.023V45.859q0-15.439-1.547-20.77t-3.823-7.076a9.451 9.451 0 0 0-5.917-1.746q-6.826 0-9.83 5.054t-3 14.98q0 9.926 2.731 14.521a48.572 48.572 0 0 0 6.736 8.776q4 4.182 4.46 4.733L350.936 76q19.662 20.769 19.661 46.5 0 20.953-6.417 32.028t-24.439 11.074q-21.755 0-27.58-19.3-3.368-10.845-3.368-28.4v-16.626h18.3v16.45q0 17.737 2.548 24.676t9.466 6.938q6.918 0 9.558-3.262t3.049-9.972q.41-6.708.41-15.071 0-16.818-14.655-31.615L327 78.852q-14.02-14.521-17.388-26.744z"/></svg>